# xmcd
#
# Track frame offsets:
#	150
#	15864
#	26467
#	37937
#	58168
#	72359
#	88807
#	101797
#	114959
#	128715
#	141329
#	154509
#	170766
#	188571
#	202521
#	217695
#	229321
#	240545
#	265721
#
# Disc length: 4440 seconds
#
# Revision: 0
# Processed by: cddbd v1.5.1PL0 Copyright (c) Steve Scherf et al.
# Submitted via: dBpowerAMP V4.0
#
DISCID=f1115613
DTITLE=Various Artist - The Best Line Dancing Album In The World Ever! Disc2
DYEAR=2004
DGENRE=Other
TTITLE0=Hubbin'It - Asleep at The Wheel
TTITLE1=Pop From The Top - Pirates Of The Mississippi
TTITLE2=Do I Do It To You Too - Linda Davis
TTITLE3=Two Teardrops - Steve Wariner
TTITLE4=In No Time At All - George Ducas
TTITLE5=It's a Love Thing - Keith Urban
TTITLE6=Party Down - Julie Reeves
TTITLE7=If This Is Love - Deana Carter
TTITLE8=Rock The Boat - Chris Cagle
TTITLE9=Southern Nights - Glen Campbell
TTITLE10=See Jane Run - Trace Adkins
TTITLE11=Marie Marie - Olsen Brothers
TTITLE12=California Blue - Roy Orbison
TTITLE13=Country Boy - Glen Campbell
TTITLE14=Zydeco Lady - Eddy Raven
TTITLE15=Sea Cruise - Billy 'Crash' Craddock
TTITLE16=Darned If I Don't (Danged If I Do) - Shenandoh
TTITLE17=Teardrops - George Ducas
TTITLE18=DATA
EXTD=
EXTT0=
EXTT1=
EXTT2=
EXTT3=
EXTT4=
EXTT5=
EXTT6=
EXTT7=
EXTT8=
EXTT9=
EXTT10=
EXTT11=
EXTT12=
EXTT13=
EXTT14=
EXTT15=
EXTT16=
EXTT17=
EXTT18=
PLAYORDER=
